<svg width="26" height="26" viewBox="0 0 26 26" fill="none" xmlns="http://www.w3.org/2000/svg">
<path d="M12.1771 15.9978V23.6123H7.66525H7.56271V23.7148V25.7657V25.8682H7.66525H18.9449H19.0474V25.7657V23.7148V23.6123H18.9449H14.433V15.9978L25.6859 3.67326L25.7127 3.64389V3.60412V0.642822V0.54028H25.6102H1H0.897458V0.642822V3.60412V3.64389L0.924274 3.67326L12.1771 15.9978ZM3.17835 2.79621H23.4318L20.3422 6.18011H6.26797L3.17835 2.79621ZM8.32771 8.43604H18.2824L13.3202 13.8708H13.2899L8.32771 8.43604Z" fill="#FCC436" stroke="#FCC436" stroke-width="0.205085"/>
<path d="M13.305 17.0496L6.2007 7.82075L20.4094 7.82075L13.305 17.0496Z" fill="#FCC436"/>
</svg>
