<svg width="42" height="31" viewBox="0 0 42 31" fill="none" xmlns="http://www.w3.org/2000/svg">
<path d="M41.334 7.906C41.334 4.0472 38.0094 0.00998797 38.0094 1.22085C38.0094 2.43171 38.6243 18.513 38.6243 18.513L38.0094 29.0291C38.0094 29.7463 38.5908 30.3276 39.308 30.3276C40.0252 30.3276 40.6066 29.7463 40.6066 29.0291L40.2631 18.4526C40.2631 18.4526 41.334 11.7648 41.334 7.906Z" stroke="#FCC436" stroke-width="0.820339" stroke-miterlimit="10"/>
<mask id="path-2-inside-1_23_3650" fill="white">
<path d="M41.334 7.906C41.334 4.0472 38.0094 0.00998795 38.0094 1.22085C38.0094 2.43171 38.6243 18.513 38.6243 18.513L38.0094 29.0291C38.0094 29.7463 38.5908 30.3276 39.308 30.3276C40.0252 30.3276 40.6066 29.7463 40.6066 29.0291L40.2631 18.4526C40.2631 18.4526 41.334 11.7648 41.334 7.906Z"/>
</mask>
<path d="M38.6243 18.513L42.719 18.7524L42.7306 18.5544L42.723 18.3562L38.6243 18.513ZM38.0094 29.0291L33.9147 28.7896L33.9077 28.9092V29.0291H38.0094ZM40.6066 29.0291H44.7082V28.9625L44.7061 28.896L40.6066 29.0291ZM40.2631 18.4526L36.213 17.8041L36.1508 18.1925L36.1636 18.5857L40.2631 18.4526ZM45.4357 7.906C45.4357 4.92995 44.2103 2.19828 43.1575 0.500635C42.6399 -0.334137 41.9674 -1.23966 41.206 -1.89566C41 -2.07311 40.6995 -2.30925 40.318 -2.52258C40.0018 -2.69937 39.2572 -3.07568 38.2446 -3.09847C36.9607 -3.12737 35.5381 -2.55831 34.6492 -1.24393C33.9565 -0.219834 33.9077 0.803278 33.9077 1.22085H42.1111C42.1111 1.48706 42.0882 2.39981 41.4443 3.3519C40.604 4.59428 39.253 5.12969 38.06 5.10283C37.1382 5.08209 36.504 4.74352 36.3145 4.63754C36.0595 4.495 35.9019 4.36272 35.8518 4.31951C35.7137 4.20053 35.8724 4.31845 36.1859 4.82397C36.7954 5.80692 37.2323 7.02325 37.2323 7.906H45.4357ZM33.9077 1.22085C33.9077 1.92609 34.067 6.37474 34.218 10.472C34.2949 12.5596 34.3718 14.6089 34.4295 16.1362C34.4583 16.8998 34.4824 17.5331 34.4992 17.9755C34.5076 18.1967 34.5142 18.3702 34.5187 18.4884C34.521 18.5475 34.5227 18.5928 34.5239 18.6234C34.5245 18.6386 34.5249 18.6502 34.5252 18.658C34.5253 18.6618 34.5255 18.6648 34.5255 18.6667C34.5256 18.6677 34.5256 18.6685 34.5256 18.669C34.5256 18.6692 34.5256 18.6694 34.5256 18.6695C34.5256 18.6696 34.5256 18.6697 38.6243 18.513C42.723 18.3562 42.723 18.3562 42.723 18.3561C42.723 18.356 42.723 18.3558 42.723 18.3555C42.723 18.3551 42.723 18.3543 42.7229 18.3534C42.7229 18.3514 42.7227 18.3485 42.7226 18.3447C42.7223 18.337 42.7219 18.3255 42.7213 18.3103C42.7201 18.2799 42.7184 18.2347 42.7161 18.1757C42.7116 18.0578 42.705 17.8846 42.6966 17.6637C42.6798 17.222 42.6558 16.5894 42.627 15.8266C42.5694 14.3008 42.4926 12.2541 42.4158 10.1699C42.339 8.08513 42.2622 5.96548 42.2048 4.29273C42.176 3.45586 42.1522 2.7348 42.1356 2.18744C42.1273 1.91341 42.121 1.68742 42.1168 1.51438C42.1147 1.42783 42.1132 1.35821 42.1122 1.30462C42.1117 1.27798 42.1114 1.25729 42.1113 1.24187C42.1111 1.22572 42.1111 1.21953 42.1111 1.22085H33.9077ZM34.5296 18.2735L33.9147 28.7896L42.1041 29.2685L42.719 18.7524L34.5296 18.2735ZM33.9077 29.0291C33.9077 32.0116 36.3255 34.4293 39.308 34.4293V26.226C40.8561 26.226 42.1111 27.481 42.1111 29.0291H33.9077ZM39.308 34.4293C42.2905 34.4293 44.7082 32.0116 44.7082 29.0291H36.5049C36.5049 27.481 37.7599 26.226 39.308 26.226V34.4293ZM44.7061 28.896L44.3627 18.3195L36.1636 18.5857L36.507 29.1622L44.7061 28.896ZM40.2631 18.4526C44.3132 19.1011 44.3133 19.1009 44.3133 19.1007C44.3133 19.1006 44.3134 19.1003 44.3134 19.1001C44.3135 19.0996 44.3136 19.0991 44.3137 19.0985C44.3139 19.0972 44.3141 19.0955 44.3145 19.0934C44.3152 19.0892 44.3161 19.0834 44.3172 19.076C44.3196 19.0612 44.3229 19.0402 44.3272 19.0131C44.3357 18.959 44.3478 18.8809 44.3632 18.7811C44.3939 18.5816 44.4373 18.2951 44.4891 17.9402C44.5926 17.2315 44.7307 16.2451 44.869 15.1322C45.1384 12.9644 45.4357 10.1098 45.4357 7.906H37.2323C37.2323 9.56095 36.9942 11.9797 36.7282 14.1205C36.5988 15.1619 36.4691 16.0886 36.3719 16.7545C36.3233 17.0869 36.283 17.3529 36.2551 17.5342C36.2412 17.6249 36.2304 17.6942 36.2232 17.74C36.2196 17.7628 36.2169 17.7798 36.2152 17.7906C36.2143 17.796 36.2137 17.7998 36.2134 17.8021C36.2132 17.8032 36.2131 17.804 36.213 17.8043C36.213 17.8045 36.213 17.8045 36.213 17.8045C36.213 17.8045 36.213 17.8044 36.213 17.8044C36.213 17.8042 36.213 17.8041 40.2631 18.4526Z" fill="#FCC436" mask="url(#path-2-inside-1_23_3650)"/>
<path d="M5.81844 1.70123C5.81844 1.70123 5.89084 4.40098 5.89084 6.96424C5.89084 8.88672 5.30693 10.094 4.4748 10.5775L4.49331 29.0291C4.49331 29.7463 3.91193 30.3277 3.19473 30.3277C2.47752 30.3277 1.89615 29.7463 1.89615 29.0291L2.42259 10.5814C1.58696 10.1004 1 8.89172 1 6.96424C1 4.40098 1.0724 1.70123 1.0724 1.70123" stroke="#FCC436" stroke-width="1.29858" stroke-miterlimit="10" stroke-linecap="round" stroke-linejoin="round"/>
<path d="M3.44543 1.70123V7.92461" stroke="#FCC436" stroke-width="1.29858" stroke-miterlimit="10" stroke-linecap="round" stroke-linejoin="round"/>
<path d="M21.7772 28.5602C28.9341 28.5602 34.7359 22.7584 34.7359 15.6015C34.7359 8.44463 28.9341 2.64282 21.7772 2.64282C14.6203 2.64282 8.81848 8.44463 8.81848 15.6015C8.81848 22.7584 14.6203 28.5602 21.7772 28.5602Z" stroke="#FCC436" stroke-width="2.46102" stroke-miterlimit="10" stroke-linecap="round" stroke-linejoin="round"/>
<path d="M21.7799 23.5171C26.1366 23.5171 29.6684 19.9853 29.6684 15.6286C29.6684 11.2719 26.1366 7.74005 21.7799 7.74005C17.4232 7.74005 13.8914 11.2719 13.8914 15.6286C13.8914 19.9853 17.4232 23.5171 21.7799 23.5171Z" fill="#FCC436"/>
<path d="M1 7.56482H5.92203L5.10169 10.8462L4.72499 28.9281C4.70639 29.8206 3.97763 30.5343 3.08502 30.5343C2.16572 30.5343 1.42591 29.7789 1.44505 28.8598L1.82034 10.8462L1 7.56482Z" fill="#FCC436"/>
</svg>
